<?xml version="1.0" encoding="utf-8"?>
<svg xmlns="http://www.w3.org/2000/svg">
    <symbol fill="none" viewBox="0 0 15 16" id="arrow" xmlns="http://www.w3.org/2000/svg">
        <g clip-path="url(#aa)">
            <path d="M14.817 4.12a.624.624 0 0 0-.884 0L7.5 10.555 1.067 4.12a.624.624 0 1 0-.884.883l6.875 6.875a.623.623 0 0 0 .884 0l6.875-6.875a.624.624 0 0 0 0-.883Z" fill="#1B1B1B"/>
        </g>
        <defs>
            <clipPath id="aa">
                <path fill="#fff" transform="translate(0 .5)" d="M0 0h15v15H0z"/>
            </clipPath>
        </defs>
    </symbol>
    <symbol viewBox="0 0 12 12" id="close" xmlns="http://www.w3.org/2000/svg">
        <g clip-path="url(#ba)">
            <g clip-path="url(#bb)">
                <path d="m6.663 6 5.2-5.2A.469.469 0 1 0 11.2.138L6 5.338.8.137A.469.469 0 1 0 .137.8l5.2 5.2-5.2 5.2a.469.469 0 0 0 .663.663l5.2-5.2 5.2 5.2a.467.467 0 0 0 .663 0 .469.469 0 0 0 0-.663L6.663 6Z"/>
            </g>
        </g>
        <defs>
            <clipPath id="ba">
                <path fill="#fff" d="M0 0h12v12H0z"/>
            </clipPath>
            <clipPath id="bb">
                <path fill="#fff" d="M0 0h12v12H0z"/>
            </clipPath>
        </defs>
    </symbol>
    <symbol viewBox="0 0 12 13" id="download" xmlns="http://www.w3.org/2000/svg">
        <path d="M10.5 9.5V8a.375.375 0 1 0-.75 0v1.5a.375.375 0 0 1-.375.375h-6.75A.375.375 0 0 1 2.25 9.5V8a.375.375 0 0 0-.75 0v1.5a1.125 1.125 0 0 0 1.125 1.125h6.75A1.125 1.125 0 0 0 10.5 9.5ZM8.107 7.543l-1.874 1.5a.375.375 0 0 1-.465 0l-1.875-1.5a.375.375 0 0 1 .465-.586L5.624 7.97V2.75a.375.375 0 1 1 .75 0v5.22l1.268-1.013a.375.375 0 1 1 .465.586Z"/>
    </symbol>
    <symbol class="deye" viewBox="0 0 15 10" id="eye" xmlns="http://www.w3.org/2000/svg">
        <path d="M7.5 9.688C2.593 9.688.16 5.41.059 5.228a.469.469 0 0 1 0-.456C.16 4.59 2.593.312 7.5.312s7.34 4.278 7.44 4.46a.468.468 0 0 1 0 .456c-.1.182-2.533 4.46-7.44 4.46ZM1.02 4.998c.558.845 2.747 3.751 6.48 3.751 3.745 0 5.924-2.903 6.48-3.75-.558-.844-2.747-3.75-6.48-3.75-3.745 0-5.924 2.903-6.48 3.75ZM7.5 7.813A2.816 2.816 0 0 1 4.687 5 2.816 2.816 0 0 1 7.5 2.187 2.816 2.816 0 0 1 10.313 5 2.816 2.816 0 0 1 7.5 7.813Zm0-4.688A1.877 1.877 0 0 0 5.625 5c0 1.034.841 1.875 1.875 1.875A1.877 1.877 0 0 0 9.375 5 1.877 1.877 0 0 0 7.5 3.125Z"/>
    </symbol>
    <symbol fill="none" viewBox="0 0 20 21" id="home" xmlns="http://www.w3.org/2000/svg">
        <g clip-path="url(#ea)">
            <g clip-path="url(#eb)">
                <path d="M18.958 20.292h-6.375a.836.836 0 0 1-.833-.834V15.5c0-1-.792-1.792-1.792-1.792S8.167 14.5 8.167 15.5v3.958a.836.836 0 0 1-.834.834H1.042a.836.836 0 0 1-.834-.834V8.792c0-.75.375-1.459.959-1.875L9.542.875a.813.813 0 0 1 .958 0l8.375 6.042c.583.416.958 1.125.958 1.875V19.5a.899.899 0 0 1-.875.792Zm-5.541-1.625h4.75V8.792a.712.712 0 0 0-.292-.542L10 2.542 2.125 8.208a.712.712 0 0 0-.292.542v9.875h4.75V15.5A3.432 3.432 0 0 1 10 12.083a3.432 3.432 0 0 1 3.417 3.417v3.167Z" fill="#343735"/>
            </g>
        </g>
        <defs>
            <clipPath id="ea">
                <path fill="#fff" transform="translate(0 .5)" d="M0 0h20v20H0z"/>
            </clipPath>
            <clipPath id="eb">
                <path fill="#fff" transform="translate(0 .5)" d="M0 0h20v20H0z"/>
            </clipPath>
        </defs>
    </symbol>
    <symbol viewBox="0 0 12 13" id="play" xmlns="http://www.w3.org/2000/svg">
        <g clip-path="url(#fa)">
            <path d="M9.541 5.477 3.64 2.07a1.18 1.18 0 0 0-1.771 1.023v6.814c0 .909.984 1.477 1.771 1.023l5.901-3.407a1.18 1.18 0 0 0 0-2.046Z"/>
        </g>
        <defs>
            <clipPath id="fa">
                <path transform="translate(0 .5)" d="M0 0h12v12H0z"/>
            </clipPath>
        </defs>
    </symbol>
    <symbol viewBox="0 0 25 26" id="plus" xmlns="http://www.w3.org/2000/svg">
        <g clip-path="url(#ga)">
            <g clip-path="url(#gb)">
                <path d="M23.75 11.75h-10v-10a1.25 1.25 0 0 0-2.5 0v10h-10a1.25 1.25 0 0 0 0 2.5h10v10a1.25 1.25 0 0 0 2.5 0v-10h10a1.25 1.25 0 0 0 0-2.5Z"/>
            </g>
        </g>
        <defs>
            <clipPath id="ga">
                <path transform="translate(0 .5)" d="M0 0h25v25H0z"/>
            </clipPath>
            <clipPath id="gb">
                <path transform="translate(0 .5)" d="M0 0h25v25H0z"/>
            </clipPath>
        </defs>
    </symbol>
    <symbol viewBox="0 0 12 13" id="save" xmlns="http://www.w3.org/2000/svg">
        <g clip-path="url(#ha)">
            <path d="M11.516 3.234 9.266.984A.375.375 0 0 0 9 .875H1.5A1.125 1.125 0 0 0 .375 2v9A1.125 1.125 0 0 0 1.5 12.125h9A1.125 1.125 0 0 0 11.625 11V3.5a.376.376 0 0 0-.109-.266ZM7.5 1.625v2.25h-3v-2.25h3ZM3 11.375V8.75a.375.375 0 0 1 .375-.375h5.25A.375.375 0 0 1 9 8.75v2.625H3ZM10.875 11a.375.375 0 0 1-.375.375h-.75V8.75a1.125 1.125 0 0 0-1.125-1.125h-5.25A1.125 1.125 0 0 0 2.25 8.75v2.625H1.5A.375.375 0 0 1 1.125 11V2a.375.375 0 0 1 .375-.375h2.25v2.25a.75.75 0 0 0 .75.75h3a.75.75 0 0 0 .75-.75v-2.25h.596l2.029 2.029V11Z"/>
        </g>
        <defs>
            <clipPath id="ha">
                <path fill="#fff" transform="translate(0 .5)" d="M0 0h12v12H0z"/>
            </clipPath>
        </defs>
    </symbol>
    <symbol fill="none" viewBox="0 0 15 15" id="search" xmlns="http://www.w3.org/2000/svg">
        <g clip-path="url(#ja)">
            <g clip-path="url(#jb)">
                <path d="m14.858 14.184-3.873-3.81a6.125 6.125 0 0 0 1.638-4.163C12.622 2.78 9.796 0 6.31 0 2.826 0 .001 2.78.001 6.21s2.825 6.211 6.31 6.211c1.506 0 2.887-.52 3.972-1.387l3.888 3.826a.49.49 0 0 0 .792-.155.473.473 0 0 0-.105-.521Zm-8.547-2.718c-2.949 0-5.34-2.353-5.34-5.255 0-2.903 2.391-5.255 5.34-5.255 2.95 0 5.34 2.352 5.34 5.255 0 2.902-2.39 5.255-5.34 5.255Z" fill="#1B1B1B"/>
            </g>
        </g>
        <defs>
            <clipPath id="ja">
                <path fill="#fff" d="M0 0h15v15H0z"/>
            </clipPath>
            <clipPath id="jb">
                <path fill="#fff" d="M0 0h15v15H0z"/>
            </clipPath>
        </defs>
    </symbol>
    <symbol fill="none" viewBox="0 0 15 15" id="search_copy" xmlns="http://www.w3.org/2000/svg">
        <g clip-path="url(#ia)">
            <g clip-path="url(#ib)">
                <path d="m14.858 14.184-3.873-3.81a6.125 6.125 0 0 0 1.638-4.163C12.622 2.78 9.796 0 6.31 0 2.826 0 .001 2.78.001 6.21s2.825 6.211 6.31 6.211c1.506 0 2.887-.52 3.972-1.387l3.888 3.826a.49.49 0 0 0 .792-.155.473.473 0 0 0-.105-.521Zm-8.547-2.718c-2.949 0-5.34-2.353-5.34-5.255 0-2.903 2.391-5.255 5.34-5.255 2.95 0 5.34 2.352 5.34 5.255 0 2.902-2.39 5.255-5.34 5.255Z" fill="#1B1B1B"/>
            </g>
        </g>
        <defs>
            <clipPath id="ia">
                <path fill="#fff" d="M0 0h15v15H0z"/>
            </clipPath>
            <clipPath id="ib">
                <path fill="#fff" d="M0 0h15v15H0z"/>
            </clipPath>
        </defs>
    </symbol>
</svg>
